# xmcd
#
# Track frame offsets:
#	150
#	15983
#	29382
#	46382
#	59400
#	75022
#	84768
#	99489
#	113280
#	124003
#	132760
#	147329
#	160325
#	174604
#	194821
#	206922
#	231831
#	250329
#	264833
#	278638
#	289700
#
# Disc length: 4030 seconds
#
# Revision: 1
# Processed by: cddbd v1.5.2PL0 Copyright (c) Steve Scherf et al.
# Submitted via: audiograbber 1.83.01
#
DISCID=170fbc15
DTITLE=Stardust - Stardust 070
DYEAR=2007
DGENRE=Country
TTITLE0=Let There Be A Light - Troy Cook Jr
TTITLE1=Live Until You Die  - Becky Hobbs
TTITLE2=If I Could Bottle This  - Charley Connor
TTITLE3=Let´s Relive All Our Memories  - Jerrie Arnold and Died Shelton
TTITLE4=Back To San Antone  - Beau Renfro
TTITLE5=Room Full Of Roses  - Ken Wentworth
TTITLE6=Heading In The Right Direction  - Michelle Rae
TTITLE7=Slow Dancing With A Fast Woman  - Michael J Nielsen
TTITLE8=Get Rythm  - Cody Huber
TTITLE9=My Love For You  - Ernie Ashworth
TTITLE10=One More Song Together  - Jack Blanchard and Misty Morgan
TTITLE11=Daddy´s Little Girl  - Buster Doss
TTITLE12=Old Man Blues  - Rooster Quantrell
TTITLE13=I Could Get Over Him - Kacey Jones
TTITLE14=See You In Rapture  - Brazograss
TTITLE15=A Little You And Me Time  - Boogy Branch Band
TTITLE16=Christmas Getting Down  - Vaden Carr
TTITLE17=Cowboy Christmas  - Brant Miller
TTITLE18=I Wanna Sit On Santa´s Lap  - Julie Taylor
TTITLE19=Pretty Paper  - Hondo Austin
TTITLE20=Thinking Of Christmas And Home - Mayf Nutter
EXTD=
EXTT0=
EXTT1=
EXTT2=
EXTT3=
EXTT4=
EXTT5=
EXTT6=
EXTT7=
EXTT8=
EXTT9=
EXTT10=
EXTT11=
EXTT12=
EXTT13=
EXTT14=
EXTT15=
EXTT16=
EXTT17=
EXTT18=
EXTT19=
EXTT20=
PLAYORDER=
